<?xml version="1.0" encoding="UTF-8"?><svg id="uuid-79bdedba-5c95-46fa-8798-681b5c21eddb" xmlns="http://www.w3.org/2000/svg" viewBox="0 0 329.686070255676896 57.644394125618419"><g id="uuid-0994a71a-b7d8-41fd-bba4-22ba8fcafac1"><path d="M24.66936505945614,52.636209353022423c-6.197820027202397.11162473055083-11.20183185298356-3.701390185806304-15.205930280260873-8.255154678236067-2.13427129721822-2.44570164527795-4.079984425834482-5.1099072372308-5.841750021496409-8.125204408443096-.776418636273775-1.366757009223875-1.521824352473232-2.990529346920084-1.458027111732918-4.538801050312031.011971510870353-1.202813937328756.656727967989355-2.643014352326645,1.63832695309975-3.240372505597406,2.078061067285489-1.18474370551121,4.086651453057129,1.608578349796517,5.697065482235303,2.906143944430369,2.760874835929826,2.595363666252524,5.23061702011546,5.239019337603168,8.444607348906175,7.16264363902701,4.375330066592142,2.87934153668175,10.048940086412586,2.608194621496295,13.168582955327111-1.596756131189977,4.07077699178717-5.846076997831915,3.462065352231548-14.60034758160873,1.702495460762293-20.933900333562633-.933876956823951-3.21717266464475-4.165157132210879-6.910853010103892-2.798433052678774-10.292152555779467,1.258474525007841-3.188524990586302,5.170846320890632-2.229440332521335,6.42604908535759.408204458093678,3.080396331948577,7.273921426942252,4.865302219350269,14.976161671020236,4.538953879915425,22.973309233733744-.566923977363331,9.976639959744716-4.487522994617393,23.228112780156152-16.128308632638436,23.530899522877007l-.183632066796235.00114086495887Z" style="fill:none; stroke:#231f20; stroke-width:4.319672513560585px;"/><path d="M68.898922905398649,52.584675198324476c-16.782303336879522-.140984149658834-25.900620856043133-20.493406886220328-18.076486864122671-34.390872799291174,7.390853250938562-14.543059783432909,30.351347671523399-19.267990213336816,40.50988478331692-5.384106978424825,6.731855842437653,8.950367158467998,7.001075838309589,23.191405735706212-2.678456812438526,31.091621215440682-5.036273333926147,4.544651009742665-13.443846743848553,8.87585921948812-19.578100342054313,8.684037256405645l-.17684076470141-.000678694130329ZM74.22395737055831,14.382139486533561c-6.108085919297991-.048512426745219-13.187096998181005,3.286008993170981-16.961504312429497,8.259690148506706-6.806499861158045,10.198436351694909,5.420922386169877,20.921757199821513,15.536736288130669,17.499851530938031,4.432370762435312-1.161550897299094,8.713880353787317-2.981042775458263,11.946463280180978-6.145769087423105,1.844571222116429-1.658763727651603,3.08718806719753-2.819011501449495,3.875579717279834-5.01314307260327,1.97623299692259-8.727392998016512-5.73149523988377-14.927355598971189-14.201929668105549-14.600126591956723l-.195345305056435-.000502927461639Z" style="fill:none; stroke:#231f20; stroke-width:4.319672513560585px;"/><path d="M133.467289206841997,52.433125121053308c-1.822152249744249.014220236516849-3.777943853679062-1.21045658940966-4.478929443908783-2.990840678461609-.643756761523036-.985219380379931.24858094627416-3.306859552725655-1.358568662029029-3.363783310574945-3.211199404013314.987291376744906-5.615446868719118,2.826126137233587-8.517158661426947,3.717347343901565-8.105675643854738,3.221589542305082-14.959065133128206,1.852232677298161-15.927219987919671-7.782186797352551-.82059722111353-10.05735323983572-.114865927740539-21.730712760987444.153391551683853-31.146290509996106.072677970909353-1.389366610512297.104883285923279-3.091871896289376.993928789275742-4.098197555253137,1.489308964016345-1.508445199120615,4.589014789689827-.867795032669164,5.571236358712667.934451041812281.665745120069005,1.185666406094242.709662630895764,2.637244762316186.688640229206612,3.951765956029703-.041103058822046,2.290154661808629-.196128342005068,5.462525022909176-.426579112878244,9.283092742614826-.222890544772781,5.148376719271255-.765121773647479,9.588762286335623-.176852573696124,14.704956720381233.782766798274679,5.712428464550612,4.903199953284457,6.023132324238759,9.732241257481292,3.995371466919096,2.263368795176575-1.048851263460165,6.716465633100597-2.322820665120162,8.954725529906682-4.762063219694028,1.034020352441075-1.527920975930101.492791574373769-4.488007913771071.64133074716392-5.950360700997408-.315388822910791-4.943665131306261-.620697745453072-9.863612177015966-.677006837588124-14.755639310640618.185171228711624-2.709968824809039-.741638380778568-6.030833780312605,1.003150378692226-8.337678995845636,1.521768673657789-1.950032710617961,5.271425660863315-2.01786489631013,6.074992162216404.548280779166817.764288158668933,3.328234890916065.582235923043299,6.707326874464343.932188131151634,10.205473721425733.802800262565142,12.582701504936267,1.23726895497748,21.329639592615422,1.293353210098758,26.182667279663292-.052198222309016,3.51883498049574.494291143186274,9.40908575064168-4.296525730024769,9.661176952609821l-.1803373361181.002457074291669Z" style="fill:none; stroke:#231f20; stroke-width:4.319672513560585px;"/><path d="M181.468757394199201,55.484238545315748c-1.98806344118384-.06957650165532-3.883900146212909-1.841890474337561-5.503737185460523-3.022190144507476-4.434014355356339-2.97244282497013-9.50390093115584-8.635270125165334-15.563261363060519-8.566424557075152-3.786924057335455-.064559996191747-3.679057209940765,2.333755409972582-4.642798928317461,5.165639872013344-1.394968827216871,3.698344246413399-7.469829718130313,2.711475498401342-8.403983886749302-.875819830704131-.401823139124645-2.325687253181968.211154368720599-5.055495774578958.246062591849295-7.409534773039923.339246352823466-6.731199552486942.283949231945371-16.04944709254778-.098320493968458-23.229039935287801-.038218302694077-.630498189895661-.109762946961382-1.281870420201813-.466098094834706-1.791162411514961-.647708368967869-.935527148825713-2.518782642445331-1.33864408221234-3.094132480676308-2.739978288931525-1.377010981957028-2.605119264730092,1.137745496623211-4.234326210416839,3.437092798490994-4.709046570938881,10.031640805924326-2.466910371776976,25.964215104019786-4.354884246789879,34.204984659163529,3.183911705411447,6.522654223845166,8.04463927001234-1.0279132377118,17.607910747439746-10.568713213695446,24.823094151450277-1.521672916464013,1.098292188249616-2.286076165170925,2.117694703221787-.189504916309488,2.991400836159301,4.509784621166546,2.096319387270341,8.364510030313795,4.430535903911732,11.566680436542811,7.036617535482947,1.733745908834862,1.345234721440647,3.424543464039743,3.366067654869767,2.945135566093995,5.706060394073575-.26952779354815,1.753068543563131-1.958030651740046,3.406621808422642-3.704569719346182,3.435079118846261l-.164835769722231.001392898562699ZM166.510319946127311,11.457015266252711c-2.953100784491653-.001392719708747-5.885787448723931.390039033502035-9.715452807094152,1.190607201318926-1.191895889441184.222352879562095-2.010127069965165,1.084821340558847-1.913800611673651,2.335842782162217.546458414895824,7.168692590024875,1.02272737992098,13.497158850259439,1.269814459709778,18.846928776129062-.020861649998551,1.529958821993205,1.169036254611456,1.408899376152476,2.279802956873937.921096118889182,7.082814860234066-2.69484720534092,15.992247668222262-8.982066495587787,17.465571415012164-16.143950041487187.73819768712292-5.011710943967046-5.106713295002919-7.223651341053483-9.20621654995557-7.147060869796405l-.179718862872505-.003463967215794Z" style="fill:none; stroke:#231f20; stroke-width:4.319672513560585px;"/><path d="M227.612997710937634,54.751769415684976c-2.647481471765786.150865880672427-4.589725258629187-1.489346376012691-6.534926721415104-2.84365031195739-7.449077515862882-4.382215406925752-14.850641055638334-14.831966913510769-21.306052847279716-26.507216208166938-.481217286207539-.092138531143064-.251099544548197,1.325452851961018-.266765671232861,1.806595929770992.409863084732933,6.665338042170333.641562721260925,11.873312595602329.687030070204855,15.66532203373572.150958009931855,4.314648140429199-.125054377474953,9.596328631583674-6.011923434842174,8.156200672483465-4.538932339293751-1.220975648340755-2.996449351567207-6.295026270910967-2.866392054374955-9.841654577401641.302450716410021-5.190138455824126.261312368944346-11.149074626531728.214082209402477-16.356261073193309-.044188768439199-2.784040801128867-.071347961276842-5.349979583252207-.33618119154562-8.107369596469653-.106743055222978-1.816897993538078-.49955024443625-3.602454362053322.002671977506907-5.317932286137875.786232172067685-2.643947091373775,5.087567139487874-3.980279084078575,6.692089653397488-1.330421838516486,6.781422857418875,10.016601487779553,13.619082672814329,22.454681128678203,23.472197133009104,29.245847904856419,1.059329720341339.69617276588906,1.365581161928276-.414925607532496,1.355731755367742-1.305112160884164.062952031645182-1.979490701136456.088515634304713-4.04200112388753.100931394517829-5.991769584814392-.19687797309598-4.494776031629954-.585179861551296-9.436514682267443-.642618845178731-13.755483822302267.102750865846247-2.776489284891795-.497459539126794-6.60912212733092.323532276875994-9.590654098339655,1.29965124453156-3.386165898931722,6.391873900525752-3.654927678568129,6.970402367238421.178804385188414.283369863771441,3.362730997607287,3.156552703174384,35.733294356718034,3.489147601187142,39.974706848754067.088269558076718,3.044597355326914-1.62746576669997,6.053592851923895-5.138783931075523,5.917438084663445l-.204171741763275.002609698731248Z" style="fill:none; stroke:#231f20; stroke-width:4.319672513560585px;"/><path d="M283.762022285563944,49.669322901154374c.031133308364588,3.805146908121969-5.613196570602668,7.178594886498104-8.265646345325877,4.06158970541037-2.32826323790141-2.559689378123949-3.206454623294121-6.048237305911243-5.121079507805916-10.004101989254195-.409701273811152-.899928232374805-.565545985977224-1.518425803853461-1.209546580828828-2.036188323285387-.584613052576969-.362210142007825-1.325716916950114-.258788319317318-2.01238230508352-.081991797380397-5.765875694456554,1.490124019728682-11.620606349526497,3.337516483350555-17.530802780984232,5.557044921488341-1.838729017254082.56198867074454-2.68951344022571,2.298739139054305-4.204411435468501,3.392679143626083-2.315310851514369,1.836741188082669-6.183426986792256.175954547097717-5.897309017580483-2.924040076315578.280723977421076-2.309825392561834,2.360576081411637-5.329644868188552,3.38362305935334-7.754099651483557,2.47680456388116-4.777564752457693,4.517146219359347-9.807002640107385,6.427619469977799-15.072793482107954,1.763201494477471-4.692783294169203,5.447675710096519-14.360933028479849,6.197243306762175-16.440515945148945.2306170243628-1.215966811132603-.78137717950267-2.615879635162855-.257619438985785-3.89599559522685.991846360973796-2.598877688053108,5.05531708993658-3.024766099664703,6.939509662970522-1.181803957158991,2.844221172326797,2.789450409825804,3.258031410137846,6.706988837593599,4.935416573225666,10.132241019337016,4.095384317251956,9.873065359624889,8.087419054072598,18.551519952132367,11.96998541598623,26.0402529060284.919405682778233,1.758513619761288,1.864007365315047,3.590840829643639,2.813846660517811,5.423571317165624.929709347503376,1.966300070158468,1.702789864448278,2.716295534533856,1.830271797165551,4.614369566965252l.001281466104047.169782237340769ZM266.974095977282559,35.956978701293338c.180880114608954-.376510934080216-.047847660454863-.975272622583361-.226838443106317-1.40364337974097-2.234908884882316-5.361402254071436-4.421632705594675-10.703530989216233-6.550379978154524-15.983490841788807-.210905936968629-.487631505080572-.640227535644954-1.638943055851996-1.031220019176544-.728429073227744-1.861078220817944,5.057924224074668-4.189048113981698,11.428642470373234-7.492598083190387,20.077595271191967-.198971830581286.523337116679613-.512812791075703,1.363361200867075-.407465906308062,1.779197625499364.14515115112772.504390167476231.78116641217639.288645760245345,1.211679348021789.167277635988285,4.210443288142415-1.39840824743078,8.58750788296129-2.493185936409645,13.088997704444409-3.253209442318621.466315228009989-.077683247860477,1.110550439407234-.203235136317744,1.3466292106732-.549260627338299l.061196166796435-.106037168265175Z" style="fill:none; stroke:#231f20; stroke-width:4.319672513560585px;"/><path d="M325.349458972088541,43.623008848910104c-.465116313953331,3.413982191126706-5.564228320597977,1.658989149749686-7.822445551364581,1.981542561154129-3.090145076022964.002467234806318-6.169324152384434.302299833712823-9.140288373760995.949066657531148-2.537772870178742.605223787322757-5.492685998180605,1.171806476711936-7.912835781096874,1.905831405092613-1.909372405274553.636221350918277-4.495737364872184,1.703306944331416-6.56880498762257,2.348819595858004-3.185627520413618,1.300522990764875-8.375909381782549.929342054458175-8.176025769931584-3.41922844686087-.040492403981261-4.372573925578763.107029193311973-8.898595970160386.29644445348822-13.060197853061254.451572738915274-7.962337893965014.519065667036557-16.28776247605856-.147429052565712-24.01993850722647-.101789851159992-1.994528210392673-.422018170092997-3.876327520254563.567366233806752-5.485124504939449.97639930601872-1.653250101995582,3.385563363270194-2.677596955187255,5.118403747730554-1.684940108514638,1.203779600527923.745112153175796,1.579993006462246,2.154156971537304,1.772580283628486,3.408806335908594.472078150096422,3.0172272082782.977084430514878,7.917392287745315,1.515873930486123,14.691965525818887.381963718162297,4.688306023102996,1.020425798047654,14.590507494043777,1.386842949112179,19.143382131675025.116801486517943.58577800067178.474323721035034.502663960578502,1.127677346858036.349120707687689,5.681168514460296-1.805382178104992,11.484711902236086-2.87234683974566,17.299577392588617-2.944133760915065,4.120315246171231-.1004571294161,10.842416662064352-.060575437046282,10.697703452773567,5.653660543934166l-.014640274130215.181367716857494Z" style="fill:none; stroke:#231f20; stroke-width:4.319672513560585px;"/><path d="M24.66936505945614,52.636209353022423c-6.197820027202397.11162473055083-11.20183185298356-3.701390185806304-15.205930280260873-8.255154678236067-2.13427129721822-2.44570164527795-4.079984425834482-5.1099072372308-5.841750021496409-8.125204408443096-.776418636273775-1.366757009223875-1.521824352473232-2.990529346920084-1.458027111732918-4.538801050312031.011971510870353-1.202813937328756.656727967989355-2.643014352326645,1.63832695309975-3.240372505597406,2.078061067285489-1.18474370551121,4.086651453057129,1.608578349796517,5.697065482235303,2.906143944430369,2.760874835929826,2.595363666252524,5.23061702011546,5.239019337603168,8.444607348906175,7.16264363902701,4.375330066592142,2.87934153668175,10.048940086412586,2.608194621496295,13.168582955327111-1.596756131189977,4.07077699178717-5.846076997831915,3.462065352231548-14.60034758160873,1.702495460762293-20.933900333562633-.933876956823951-3.21717266464475-4.165157132210879-6.910853010103892-2.798433052678774-10.292152555779467,1.258474525007841-3.188524990586302,5.170846320890632-2.229440332521335,6.42604908535759.408204458093678,3.080396331948577,7.273921426942252,4.865302219350269,14.976161671020236,4.538953879915425,22.973309233733744-.566923977363331,9.976639959744716-4.487522994617393,23.228112780156152-16.128308632638436,23.530899522877007l-.183632066796235.00114086495887Z" style="fill:#1f4134;"/><path d="M68.898922905398649,52.584675198324476c-16.782303336879522-.140984149658834-25.900620856043133-20.493406886220328-18.076486864122671-34.390872799291174,7.390853250938562-14.543059783432909,30.351347671523399-19.267990213336816,40.50988478331692-5.384106978424825,6.731855842437653,8.950367158467998,7.001075838309589,23.191405735706212-2.678456812438526,31.091621215440682-5.036273333926147,4.544651009742665-13.443846743848553,8.87585921948812-19.578100342054313,8.684037256405645l-.17684076470141-.000678694130329ZM74.22395737055831,14.382139486533561c-6.108085919297991-.048512426745219-13.187096998181005,3.286008993170981-16.961504312429497,8.259690148506706-6.806499861158045,10.198436351694909,5.420922386169877,20.921757199821513,15.536736288130669,17.499851530938031,4.432370762435312-1.161550897299094,8.713880353787317-2.981042775458263,11.946463280180978-6.145769087423105,1.844571222116429-1.658763727651603,3.08718806719753-2.819011501449495,3.875579717279834-5.01314307260327,1.97623299692259-8.727392998016512-5.73149523988377-14.927355598971189-14.201929668105549-14.600126591956723l-.195345305056435-.000502927461639Z" style="fill:#1f4134;"/><path d="M133.467289206841997,52.433125121053308c-1.822152249744249.014220236516849-3.777943853679062-1.21045658940966-4.478929443908783-2.990840678461609-.643756761523036-.985219380379931.24858094627416-3.306859552725655-1.358568662029029-3.363783310574945-3.211199404013314.987291376744906-5.615446868719118,2.826126137233587-8.517158661426947,3.717347343901565-8.105675643854738,3.221589542305082-14.959065133128206,1.852232677298161-15.927219987919671-7.782186797352551-.82059722111353-10.05735323983572-.114865927740539-21.730712760987444.153391551683853-31.146290509996106.072677970909353-1.389366610512297.104883285923279-3.091871896289376.993928789275742-4.098197555253137,1.489308964016345-1.508445199120615,4.589014789689827-.867795032669164,5.571236358712667.934451041812281.665745120069005,1.185666406094242.709662630895764,2.637244762316186.688640229206612,3.951765956029703-.041103058822046,2.290154661808629-.196128342005068,5.462525022909176-.426579112878244,9.283092742614826-.222890544772781,5.148376719271255-.765121773647479,9.588762286335623-.176852573696124,14.704956720381233.782766798274679,5.712428464550612,4.903199953284457,6.023132324238759,9.732241257481292,3.995371466919096,2.263368795176575-1.048851263460165,6.716465633100597-2.322820665120162,8.954725529906682-4.762063219694028,1.034020352441075-1.527920975930101.492791574373769-4.488007913771071.64133074716392-5.950360700997408-.315388822910791-4.943665131306261-.620697745453072-9.863612177015966-.677006837588124-14.755639310640618.185171228711624-2.709968824809039-.741638380778568-6.030833780312605,1.003150378692226-8.337678995845636,1.521768673657789-1.950032710617961,5.271425660863315-2.01786489631013,6.074992162216404.548280779166817.764288158668933,3.328234890916065.582235923043299,6.707326874464343.932188131151634,10.205473721425733.802800262565142,12.582701504936267,1.23726895497748,21.329639592615422,1.293353210098758,26.182667279663292-.052198222309016,3.51883498049574.494291143186274,9.40908575064168-4.296525730024769,9.661176952609821l-.1803373361181.002457074291669Z" style="fill:#1f4134;"/><path d="M181.468757394199201,55.484238545315748c-1.98806344118384-.06957650165532-3.883900146212909-1.841890474337561-5.503737185460523-3.022190144507476-4.434014355356339-2.97244282497013-9.50390093115584-8.635270125165334-15.563261363060519-8.566424557075152-3.786924057335455-.064559996191747-3.679057209940765,2.333755409972582-4.642798928317461,5.165639872013344-1.394968827216871,3.698344246413399-7.469829718130313,2.711475498401342-8.403983886749302-.875819830704131-.401823139124645-2.325687253181968.211154368720599-5.055495774578958.246062591849295-7.409534773039923.339246352823466-6.731199552486942.283949231945371-16.04944709254778-.098320493968458-23.229039935287801-.038218302694077-.630498189895661-.109762946961382-1.281870420201813-.466098094834706-1.791162411514961-.647708368967869-.935527148825713-2.518782642445331-1.33864408221234-3.094132480676308-2.739978288931525-1.377010981957028-2.605119264730092,1.137745496623211-4.234326210416839,3.437092798490994-4.709046570938881,10.031640805924326-2.466910371776976,25.964215104019786-4.354884246789879,34.204984659163529,3.183911705411447,6.522654223845166,8.04463927001234-1.0279132377118,17.607910747439746-10.568713213695446,24.823094151450277-1.521672916464013,1.098292188249616-2.286076165170925,2.117694703221787-.189504916309488,2.991400836159301,4.509784621166546,2.096319387270341,8.364510030313795,4.430535903911732,11.566680436542811,7.036617535482947,1.733745908834862,1.345234721440647,3.424543464039743,3.366067654869767,2.945135566093995,5.706060394073575-.26952779354815,1.753068543563131-1.958030651740046,3.406621808422642-3.704569719346182,3.435079118846261l-.164835769722231.001392898562699ZM166.510319946127311,11.457015266252711c-2.953100784491653-.001392719708747-5.885787448723931.390039033502035-9.715452807094152,1.190607201318926-1.191895889441184.222352879562095-2.010127069965165,1.084821340558847-1.913800611673651,2.335842782162217.546458414895824,7.168692590024875,1.02272737992098,13.497158850259439,1.269814459709778,18.846928776129062-.020861649998551,1.529958821993205,1.169036254611456,1.408899376152476,2.279802956873937.921096118889182,7.082814860234066-2.69484720534092,15.992247668222262-8.982066495587787,17.465571415012164-16.143950041487187.73819768712292-5.011710943967046-5.106713295002919-7.223651341053483-9.20621654995557-7.147060869796405l-.179718862872505-.003463967215794Z" style="fill:#1f4134;"/><path d="M227.612997710937634,54.751769415684976c-2.647481471765786.150865880672427-4.589725258629187-1.489346376012691-6.534926721415104-2.84365031195739-7.449077515862882-4.382215406925752-14.850641055638334-14.831966913510769-21.306052847279716-26.507216208166938-.481217286207539-.092138531143064-.251099544548197,1.325452851961018-.266765671232861,1.806595929770992.409863084732933,6.665338042170333.641562721260925,11.873312595602329.687030070204855,15.66532203373572.150958009931855,4.314648140429199-.125054377474953,9.596328631583674-6.011923434842174,8.156200672483465-4.538932339293751-1.220975648340755-2.996449351567207-6.295026270910967-2.866392054374955-9.841654577401641.302450716410021-5.190138455824126.261312368944346-11.149074626531728.214082209402477-16.356261073193309-.044188768439199-2.784040801128867-.071347961276842-5.349979583252207-.33618119154562-8.107369596469653-.106743055222978-1.816897993538078-.49955024443625-3.602454362053322.002671977506907-5.317932286137875.786232172067685-2.643947091373775,5.087567139487874-3.980279084078575,6.692089653397488-1.330421838516486,6.781422857418875,10.016601487779553,13.619082672814329,22.454681128678203,23.472197133009104,29.245847904856419,1.059329720341339.69617276588906,1.365581161928276-.414925607532496,1.355731755367742-1.305112160884164.062952031645182-1.979490701136456.088515634304713-4.04200112388753.100931394517829-5.991769584814392-.19687797309598-4.494776031629954-.585179861551296-9.436514682267443-.642618845178731-13.755483822302267.102750865846247-2.776489284891795-.497459539126794-6.60912212733092.323532276875994-9.590654098339655,1.29965124453156-3.386165898931722,6.391873900525752-3.654927678568129,6.970402367238421.178804385188414.283369863771441,3.362730997607287,3.156552703174384,35.733294356718034,3.489147601187142,39.974706848754067.088269558076718,3.044597355326914-1.62746576669997,6.053592851923895-5.138783931075523,5.917438084663445l-.204171741763275.002609698731248Z" style="fill:#1f4134;"/><path d="M283.762022285563944,49.669322901154374c.031133308364588,3.805146908121969-5.613196570602668,7.178594886498104-8.265646345325877,4.06158970541037-2.32826323790141-2.559689378123949-3.206454623294121-6.048237305911243-5.121079507805916-10.004101989254195-.409701273811152-.899928232374805-.565545985977224-1.518425803853461-1.209546580828828-2.036188323285387-.584613052576969-.362210142007825-1.325716916950114-.258788319317318-2.01238230508352-.081991797380397-5.765875694456554,1.490124019728682-11.620606349526497,3.337516483350555-17.530802780984232,5.557044921488341-1.838729017254082.56198867074454-2.68951344022571,2.298739139054305-4.204411435468501,3.392679143626083-2.315310851514369,1.836741188082669-6.183426986792256.175954547097717-5.897309017580483-2.924040076315578.280723977421076-2.309825392561834,2.360576081411637-5.329644868188552,3.38362305935334-7.754099651483557,2.47680456388116-4.777564752457693,4.517146219359347-9.807002640107385,6.427619469977799-15.072793482107954,1.763201494477471-4.692783294169203,5.447675710096519-14.360933028479849,6.197243306762175-16.440515945148945.2306170243628-1.215966811132603-.78137717950267-2.615879635162855-.257619438985785-3.89599559522685.991846360973796-2.598877688053108,5.05531708993658-3.024766099664703,6.939509662970522-1.181803957158991,2.844221172326797,2.789450409825804,3.258031410137846,6.706988837593599,4.935416573225666,10.132241019337016,4.095384317251956,9.873065359624889,8.087419054072598,18.551519952132367,11.96998541598623,26.0402529060284.919405682778233,1.758513619761288,1.864007365315047,3.590840829643639,2.813846660517811,5.423571317165624.929709347503376,1.966300070158468,1.702789864448278,2.716295534533856,1.830271797165551,4.614369566965252l.001281466104047.169782237340769ZM266.974095977282559,35.956978701293338c.180880114608954-.376510934080216-.047847660454863-.975272622583361-.226838443106317-1.40364337974097-2.234908884882316-5.361402254071436-4.421632705594675-10.703530989216233-6.550379978154524-15.983490841788807-.210905936968629-.487631505080572-.640227535644954-1.638943055851996-1.031220019176544-.728429073227744-1.861078220817944,5.057924224074668-4.189048113981698,11.428642470373234-7.492598083190387,20.077595271191967-.198971830581286.523337116679613-.512812791075703,1.363361200867075-.407465906308062,1.779197625499364.14515115112772.504390167476231.78116641217639.288645760245345,1.211679348021789.167277635988285,4.210443288142415-1.39840824743078,8.58750788296129-2.493185936409645,13.088997704444409-3.253209442318621.466315228009989-.077683247860477,1.110550439407234-.203235136317744,1.3466292106732-.549260627338299l.061196166796435-.106037168265175Z" style="fill:#1f4134;"/><path d="M325.349458972088541,43.623008848910104c-.465116313953331,3.413982191126706-5.564228320597977,1.658989149749686-7.822445551364581,1.981542561154129-3.090145076022964.002467234806318-6.169324152384434.302299833712823-9.140288373760995.949066657531148-2.537772870178742.605223787322757-5.492685998180605,1.171806476711936-7.912835781096874,1.905831405092613-1.909372405274553.636221350918277-4.495737364872184,1.703306944331416-6.56880498762257,2.348819595858004-3.185627520413618,1.300522990764875-8.375909381782549.929342054458175-8.176025769931584-3.41922844686087-.040492403981261-4.372573925578763.107029193311973-8.898595970160386.29644445348822-13.060197853061254.451572738915274-7.962337893965014.519065667036557-16.28776247605856-.147429052565712-24.01993850722647-.101789851159992-1.994528210392673-.422018170092997-3.876327520254563.567366233806752-5.485124504939449.97639930601872-1.653250101995582,3.385563363270194-2.677596955187255,5.118403747730554-1.684940108514638,1.203779600527923.745112153175796,1.579993006462246,2.154156971537304,1.772580283628486,3.408806335908594.472078150096422,3.0172272082782.977084430514878,7.917392287745315,1.515873930486123,14.691965525818887.381963718162297,4.688306023102996,1.020425798047654,14.590507494043777,1.386842949112179,19.143382131675025.116801486517943.58577800067178.474323721035034.502663960578502,1.127677346858036.349120707687689,5.681168514460296-1.805382178104992,11.484711902236086-2.87234683974566,17.299577392588617-2.944133760915065,4.120315246171231-.1004571294161,10.842416662064352-.060575437046282,10.697703452773567,5.653660543934166l-.014640274130215.181367716857494Z" style="fill:#1f4134;"/><g style="opacity:.5;"><path d="M24.66936505945614,52.636209353022423c-6.197820027202397.11162473055083-11.20183185298356-3.701390185806304-15.205930280260873-8.255154678236067-2.13427129721822-2.44570164527795-4.079984425834482-5.1099072372308-5.841750021496409-8.125204408443096-.776418636273775-1.366757009223875-1.521824352473232-2.990529346920084-1.458027111732918-4.538801050312031.011971510870353-1.202813937328756.656727967989355-2.643014352326645,1.63832695309975-3.240372505597406,2.078061067285489-1.18474370551121,4.086651453057129,1.608578349796517,5.697065482235303,2.906143944430369,2.760874835929826,2.595363666252524,5.23061702011546,5.239019337603168,8.444607348906175,7.16264363902701,4.375330066592142,2.87934153668175,10.048940086412586,2.608194621496295,13.168582955327111-1.596756131189977,4.07077699178717-5.846076997831915,3.462065352231548-14.60034758160873,1.702495460762293-20.933900333562633-.933876956823951-3.21717266464475-4.165157132210879-6.910853010103892-2.798433052678774-10.292152555779467,1.258474525007841-3.188524990586302,5.170846320890632-2.229440332521335,6.42604908535759.408204458093678,3.080396331948577,7.273921426942252,4.865302219350269,14.976161671020236,4.538953879915425,22.973309233733744-.566923977363331,9.976639959744716-4.487522994617393,23.228112780156152-16.128308632638436,23.530899522877007l-.183632066796235.00114086495887Z" style="fill:#231f20;"/><path d="M68.898922905398649,52.584675198324476c-16.782303336879522-.140984149658834-25.900620856043133-20.493406886220328-18.076486864122671-34.390872799291174,7.390853250938562-14.543059783432909,30.351347671523399-19.267990213336816,40.50988478331692-5.384106978424825,6.731855842437653,8.950367158467998,7.001075838309589,23.191405735706212-2.678456812438526,31.091621215440682-5.036273333926147,4.544651009742665-13.443846743848553,8.87585921948812-19.578100342054313,8.684037256405645l-.17684076470141-.000678694130329ZM74.22395737055831,14.382139486533561c-6.108085919297991-.048512426745219-13.187096998181005,3.286008993170981-16.961504312429497,8.259690148506706-6.806499861158045,10.198436351694909,5.420922386169877,20.921757199821513,15.536736288130669,17.499851530938031,4.432370762435312-1.161550897299094,8.713880353787317-2.981042775458263,11.946463280180978-6.145769087423105,1.844571222116429-1.658763727651603,3.08718806719753-2.819011501449495,3.875579717279834-5.01314307260327,1.97623299692259-8.727392998016512-5.73149523988377-14.927355598971189-14.201929668105549-14.600126591956723l-.195345305056435-.000502927461639Z" style="fill:#231f20;"/><path d="M133.467289206841997,52.433125121053308c-1.822152249744249.014220236516849-3.777943853679062-1.21045658940966-4.478929443908783-2.990840678461609-.643756761523036-.985219380379931.24858094627416-3.306859552725655-1.358568662029029-3.363783310574945-3.211199404013314.987291376744906-5.615446868719118,2.826126137233587-8.517158661426947,3.717347343901565-8.105675643854738,3.221589542305082-14.959065133128206,1.852232677298161-15.927219987919671-7.782186797352551-.82059722111353-10.05735323983572-.114865927740539-21.730712760987444.153391551683853-31.146290509996106.072677970909353-1.389366610512297.104883285923279-3.091871896289376.993928789275742-4.098197555253137,1.489308964016345-1.508445199120615,4.589014789689827-.867795032669164,5.571236358712667.934451041812281.665745120069005,1.185666406094242.709662630895764,2.637244762316186.688640229206612,3.951765956029703-.041103058822046,2.290154661808629-.196128342005068,5.462525022909176-.426579112878244,9.283092742614826-.222890544772781,5.148376719271255-.765121773647479,9.588762286335623-.176852573696124,14.704956720381233.782766798274679,5.712428464550612,4.903199953284457,6.023132324238759,9.732241257481292,3.995371466919096,2.263368795176575-1.048851263460165,6.716465633100597-2.322820665120162,8.954725529906682-4.762063219694028,1.034020352441075-1.527920975930101.492791574373769-4.488007913771071.64133074716392-5.950360700997408-.315388822910791-4.943665131306261-.620697745453072-9.863612177015966-.677006837588124-14.755639310640618.185171228711624-2.709968824809039-.741638380778568-6.030833780312605,1.003150378692226-8.337678995845636,1.521768673657789-1.950032710617961,5.271425660863315-2.01786489631013,6.074992162216404.548280779166817.764288158668933,3.328234890916065.582235923043299,6.707326874464343.932188131151634,10.205473721425733.802800262565142,12.582701504936267,1.23726895497748,21.329639592615422,1.293353210098758,26.182667279663292-.052198222309016,3.51883498049574.494291143186274,9.40908575064168-4.296525730024769,9.661176952609821l-.1803373361181.002457074291669Z" style="fill:#231f20;"/><path d="M181.468757394199201,55.484238545315748c-1.98806344118384-.06957650165532-3.883900146212909-1.841890474337561-5.503737185460523-3.022190144507476-4.434014355356339-2.97244282497013-9.50390093115584-8.635270125165334-15.563261363060519-8.566424557075152-3.786924057335455-.064559996191747-3.679057209940765,2.333755409972582-4.642798928317461,5.165639872013344-1.394968827216871,3.698344246413399-7.469829718130313,2.711475498401342-8.403983886749302-.875819830704131-.401823139124645-2.325687253181968.211154368720599-5.055495774578958.246062591849295-7.409534773039923.339246352823466-6.731199552486942.283949231945371-16.04944709254778-.098320493968458-23.229039935287801-.038218302694077-.630498189895661-.109762946961382-1.281870420201813-.466098094834706-1.791162411514961-.647708368967869-.935527148825713-2.518782642445331-1.33864408221234-3.094132480676308-2.739978288931525-1.377010981957028-2.605119264730092,1.137745496623211-4.234326210416839,3.437092798490994-4.709046570938881,10.031640805924326-2.466910371776976,25.964215104019786-4.354884246789879,34.204984659163529,3.183911705411447,6.522654223845166,8.04463927001234-1.0279132377118,17.607910747439746-10.568713213695446,24.823094151450277-1.521672916464013,1.098292188249616-2.286076165170925,2.117694703221787-.189504916309488,2.991400836159301,4.509784621166546,2.096319387270341,8.364510030313795,4.430535903911732,11.566680436542811,7.036617535482947,1.733745908834862,1.345234721440647,3.424543464039743,3.366067654869767,2.945135566093995,5.706060394073575-.26952779354815,1.753068543563131-1.958030651740046,3.406621808422642-3.704569719346182,3.435079118846261l-.164835769722231.001392898562699ZM166.510319946127311,11.457015266252711c-2.953100784491653-.001392719708747-5.885787448723931.390039033502035-9.715452807094152,1.190607201318926-1.191895889441184.222352879562095-2.010127069965165,1.084821340558847-1.913800611673651,2.335842782162217.546458414895824,7.168692590024875,1.02272737992098,13.497158850259439,1.269814459709778,18.846928776129062-.020861649998551,1.529958821993205,1.169036254611456,1.408899376152476,2.279802956873937.921096118889182,7.082814860234066-2.69484720534092,15.992247668222262-8.982066495587787,17.465571415012164-16.143950041487187.73819768712292-5.011710943967046-5.106713295002919-7.223651341053483-9.20621654995557-7.147060869796405l-.179718862872505-.003463967215794Z" style="fill:#231f20;"/><path d="M227.612997710937634,54.751769415684976c-2.647481471765786.150865880672427-4.589725258629187-1.489346376012691-6.534926721415104-2.84365031195739-7.449077515862882-4.382215406925752-14.850641055638334-14.831966913510769-21.306052847279716-26.507216208166938-.481217286207539-.092138531143064-.251099544548197,1.325452851961018-.266765671232861,1.806595929770992.409863084732933,6.665338042170333.641562721260925,11.873312595602329.687030070204855,15.66532203373572.150958009931855,4.314648140429199-.125054377474953,9.596328631583674-6.011923434842174,8.156200672483465-4.538932339293751-1.220975648340755-2.996449351567207-6.295026270910967-2.866392054374955-9.841654577401641.302450716410021-5.190138455824126.261312368944346-11.149074626531728.214082209402477-16.356261073193309-.044188768439199-2.784040801128867-.071347961276842-5.349979583252207-.33618119154562-8.107369596469653-.106743055222978-1.816897993538078-.49955024443625-3.602454362053322.002671977506907-5.317932286137875.786232172067685-2.643947091373775,5.087567139487874-3.980279084078575,6.692089653397488-1.330421838516486,6.781422857418875,10.016601487779553,13.619082672814329,22.454681128678203,23.472197133009104,29.245847904856419,1.059329720341339.69617276588906,1.365581161928276-.414925607532496,1.355731755367742-1.305112160884164.062952031645182-1.979490701136456.088515634304713-4.04200112388753.100931394517829-5.991769584814392-.19687797309598-4.494776031629954-.585179861551296-9.436514682267443-.642618845178731-13.755483822302267.102750865846247-2.776489284891795-.497459539126794-6.60912212733092.323532276875994-9.590654098339655,1.29965124453156-3.386165898931722,6.391873900525752-3.654927678568129,6.970402367238421.178804385188414.283369863771441,3.362730997607287,3.156552703174384,35.733294356718034,3.489147601187142,39.974706848754067.088269558076718,3.044597355326914-1.62746576669997,6.053592851923895-5.138783931075523,5.917438084663445l-.204171741763275.002609698731248Z" style="fill:#231f20;"/><path d="M283.762022285563944,49.669322901154374c.031133308364588,3.805146908121969-5.613196570602668,7.178594886498104-8.265646345325877,4.06158970541037-2.32826323790141-2.559689378123949-3.206454623294121-6.048237305911243-5.121079507805916-10.004101989254195-.409701273811152-.899928232374805-.565545985977224-1.518425803853461-1.209546580828828-2.036188323285387-.584613052576969-.362210142007825-1.325716916950114-.258788319317318-2.01238230508352-.081991797380397-5.765875694456554,1.490124019728682-11.620606349526497,3.337516483350555-17.530802780984232,5.557044921488341-1.838729017254082.56198867074454-2.68951344022571,2.298739139054305-4.204411435468501,3.392679143626083-2.315310851514369,1.836741188082669-6.183426986792256.175954547097717-5.897309017580483-2.924040076315578.280723977421076-2.309825392561834,2.360576081411637-5.329644868188552,3.38362305935334-7.754099651483557,2.47680456388116-4.777564752457693,4.517146219359347-9.807002640107385,6.427619469977799-15.072793482107954,1.763201494477471-4.692783294169203,5.447675710096519-14.360933028479849,6.197243306762175-16.440515945148945.2306170243628-1.215966811132603-.78137717950267-2.615879635162855-.257619438985785-3.89599559522685.991846360973796-2.598877688053108,5.05531708993658-3.024766099664703,6.939509662970522-1.181803957158991,2.844221172326797,2.789450409825804,3.258031410137846,6.706988837593599,4.935416573225666,10.132241019337016,4.095384317251956,9.873065359624889,8.087419054072598,18.551519952132367,11.96998541598623,26.0402529060284.919405682778233,1.758513619761288,1.864007365315047,3.590840829643639,2.813846660517811,5.423571317165624.929709347503376,1.966300070158468,1.702789864448278,2.716295534533856,1.830271797165551,4.614369566965252l.001281466104047.169782237340769ZM266.974095977282559,35.956978701293338c.180880114608954-.376510934080216-.047847660454863-.975272622583361-.226838443106317-1.40364337974097-2.234908884882316-5.361402254071436-4.421632705594675-10.703530989216233-6.550379978154524-15.983490841788807-.210905936968629-.487631505080572-.640227535644954-1.638943055851996-1.031220019176544-.728429073227744-1.861078220817944,5.057924224074668-4.189048113981698,11.428642470373234-7.492598083190387,20.077595271191967-.198971830581286.523337116679613-.512812791075703,1.363361200867075-.407465906308062,1.779197625499364.14515115112772.504390167476231.78116641217639.288645760245345,1.211679348021789.167277635988285,4.210443288142415-1.39840824743078,8.58750788296129-2.493185936409645,13.088997704444409-3.253209442318621.466315228009989-.077683247860477,1.110550439407234-.203235136317744,1.3466292106732-.549260627338299l.061196166796435-.106037168265175Z" style="fill:#231f20;"/><path d="M325.349458972088541,43.623008848910104c-.465116313953331,3.413982191126706-5.564228320597977,1.658989149749686-7.822445551364581,1.981542561154129-3.090145076022964.002467234806318-6.169324152384434.302299833712823-9.140288373760995.949066657531148-2.537772870178742.605223787322757-5.492685998180605,1.171806476711936-7.912835781096874,1.905831405092613-1.909372405274553.636221350918277-4.495737364872184,1.703306944331416-6.56880498762257,2.348819595858004-3.185627520413618,1.300522990764875-8.375909381782549.929342054458175-8.176025769931584-3.41922844686087-.040492403981261-4.372573925578763.107029193311973-8.898595970160386.29644445348822-13.060197853061254.451572738915274-7.962337893965014.519065667036557-16.28776247605856-.147429052565712-24.01993850722647-.101789851159992-1.994528210392673-.422018170092997-3.876327520254563.567366233806752-5.485124504939449.97639930601872-1.653250101995582,3.385563363270194-2.677596955187255,5.118403747730554-1.684940108514638,1.203779600527923.745112153175796,1.579993006462246,2.154156971537304,1.772580283628486,3.408806335908594.472078150096422,3.0172272082782.977084430514878,7.917392287745315,1.515873930486123,14.691965525818887.381963718162297,4.688306023102996,1.020425798047654,14.590507494043777,1.386842949112179,19.143382131675025.116801486517943.58577800067178.474323721035034.502663960578502,1.127677346858036.349120707687689,5.681168514460296-1.805382178104992,11.484711902236086-2.87234683974566,17.299577392588617-2.944133760915065,4.120315246171231-.1004571294161,10.842416662064352-.060575437046282,10.697703452773567,5.653660543934166l-.014640274130215.181367716857494Z" style="fill:#231f20;"/></g><path d="M27.549146735163049,52.636209353022423c-6.197820027202397.11162473055083-11.20183185298356-3.701390185806304-15.205930280260873-8.255154678236067-2.13427129721822-2.44570164527795-4.079984425834482-5.1099072372308-5.841750021496409-8.125204408443096-.776418636273775-1.366757009223875-1.521824352473232-2.990529346920084-1.458027111732918-4.538801050312031.011971510870353-1.202813937328756.656727967989355-2.643014352326645,1.63832695309975-3.240372505597406,2.078061067285489-1.18474370551121,4.086651453057129,1.608578349796517,5.697065482235303,2.906143944430369,2.760874835929826,2.595363666252524,5.23061702011546,5.239019337603168,8.444607348906175,7.16264363902701,4.375330066592142,2.87934153668175,10.048940086412586,2.608194621496295,13.168582955327111-1.596756131189977,4.07077699178717-5.846076997831915,3.462065352231548-14.60034758160873,1.702495460762293-20.933900333562633-.933876956823951-3.21717266464475-4.165157132210879-6.910853010103892-2.798433052678774-10.292152555779467,1.258474525007841-3.188524990586302,5.170846320890632-2.229440332521335,6.42604908535759.408204458093678,3.080396331948577,7.273921426942252,4.865302219350269,14.976161671020236,4.538953879915425,22.973309233733744-.566923977363331,9.976639959744716-4.487522994617393,23.228112780156152-16.128308632638436,23.530899522877007l-.183632066796235.00114086495887Z" style="fill:none; stroke:#231f20; stroke-width:2.879781675707056px;"/><path d="M71.778704581105558,52.584675198324476c-16.782303336879522-.140984149658834-25.900620856043133-20.493406886220328-18.076486864122671-34.390872799291174,7.390853250938562-14.543059783432909,30.351347671523399-19.267990213336816,40.50988478331692-5.384106978424825,6.731855842437653,8.950367158467998,7.001075838309589,23.191405735706212-2.678456812438526,31.091621215440682-5.036273333926147,4.544651009742665-13.443846743848553,8.87585921948812-19.578100342054313,8.684037256405645l-.17684076470141-.000678694130329ZM77.103739046265218,14.382139486533561c-6.108085919297991-.048512426745219-13.187096998181005,3.286008993170981-16.961504312429497,8.259690148506706-6.806499861158045,10.198436351694909,5.420922386169877,20.921757199821513,15.536736288130669,17.499851530938031,4.432370762435312-1.161550897299094,8.713880353787317-2.981042775458263,11.946463280180978-6.145769087423105,1.844571222116429-1.658763727651603,3.08718806719753-2.819011501449495,3.875579717279834-5.01314307260327,1.97623299692259-8.727392998016512-5.73149523988377-14.927355598971189-14.201929668105549-14.600126591956723l-.195345305056435-.000502927461639Z" style="fill:none; stroke:#231f20; stroke-width:2.879781675707056px;"/><path d="M136.347070882548906,52.433125121053308c-1.822152249744249.014220236516849-3.777943853679062-1.21045658940966-4.478929443908783-2.990840678461609-.643756761523036-.985219380379931.24858094627416-3.306859552725655-1.358568662029029-3.363783310574945-3.211199404013314.987291376744906-5.615446868719118,2.826126137233587-8.517158661426947,3.717347343901565-8.105675643854738,3.221589542305082-14.959065133128206,1.852232677298161-15.927219987919671-7.782186797352551-.82059722111353-10.05735323983572-.114865927740539-21.730712760987444.153391551683853-31.146290509996106.072677970909353-1.389366610512297.104883285923279-3.091871896289376.993928789275742-4.098197555253137,1.489308964016345-1.508445199120615,4.589014789689827-.867795032669164,5.571236358712667.934451041812281.665745120069005,1.185666406094242.709662630895764,2.637244762316186.688640229206612,3.951765956029703-.041103058822046,2.290154661808629-.196128342005068,5.462525022909176-.426579112878244,9.283092742614826-.222890544772781,5.148376719271255-.765121773647479,9.588762286335623-.176852573696124,14.704956720381233.782766798274679,5.712428464550612,4.903199953284457,6.023132324238759,9.732241257481292,3.995371466919096,2.263368795176575-1.048851263460165,6.716465633100597-2.322820665120162,8.954725529906682-4.762063219694028,1.034020352441075-1.527920975930101.492791574373769-4.488007913771071.64133074716392-5.950360700997408-.315388822910791-4.943665131306261-.620697745453072-9.863612177015966-.677006837588124-14.755639310640618.185171228711624-2.709968824809039-.741638380778568-6.030833780312605,1.003150378692226-8.337678995845636,1.521768673657789-1.950032710617961,5.271425660863315-2.01786489631013,6.074992162216404.548280779166817.764288158668933,3.328234890916065.582235923043299,6.707326874464343.932188131151634,10.205473721425733.802800262565142,12.582701504936267,1.23726895497748,21.329639592615422,1.293353210098758,26.182667279663292-.052198222309016,3.51883498049574.494291143186274,9.40908575064168-4.296525730024769,9.661176952609821l-.1803373361181.002457074291669Z" style="fill:none; stroke:#231f20; stroke-width:2.879781675707056px;"/><path d="M184.34853906990611,55.484238545315748c-1.98806344118384-.06957650165532-3.883900146212909-1.841890474337561-5.503737185460523-3.022190144507476-4.434014355356339-2.97244282497013-9.50390093115584-8.635270125165334-15.563261363060519-8.566424557075152-3.786924057335455-.064559996191747-3.679057209940765,2.333755409972582-4.642798928317461,5.165639872013344-1.394968827216871,3.698344246413399-7.469829718130313,2.711475498401342-8.403983886749302-.875819830704131-.401823139124645-2.325687253181968.211154368720599-5.055495774578958.246062591849295-7.409534773039923.339246352823466-6.731199552486942.283949231945371-16.04944709254778-.098320493968458-23.229039935287801-.038218302694077-.630498189895661-.109762946961382-1.281870420201813-.466098094834706-1.791162411514961-.647708368967869-.935527148825713-2.518782642445331-1.33864408221234-3.094132480676308-2.739978288931525-1.377010981957028-2.605119264730092,1.137745496623211-4.234326210416839,3.437092798490994-4.709046570938881,10.031640805924326-2.466910371776976,25.964215104019786-4.354884246789879,34.204984659163529,3.183911705411447,6.522654223846075,8.04463927001234-1.0279132377118,17.607910747439746-10.568713213695446,24.823094151450277-1.521672916464013,1.098292188249616-2.286076165170925,2.117694703221787-.189504916309488,2.991400836159301,4.509784621166546,2.096319387270341,8.364510030313795,4.430535903911732,11.566680436542811,7.036617535482947,1.733745908834862,1.345234721440647,3.424543464039743,3.366067654869767,2.945135566094905,5.706060394073575-.269527793549059,1.753068543563131-1.958030651740955,3.406621808422642-3.704569719347091,3.435079118846261l-.164835769722231.001392898562699ZM169.390101621834219,11.457015266252711c-2.953100784491653-.001392719708747-5.885787448723931.390039033502035-9.715452807094152,1.190607201318926-1.191895889441184.222352879562095-2.010127069965165,1.084821340558847-1.913800611673651,2.335842782162217.546458414895824,7.168692590024875,1.02272737992098,13.497158850259439,1.269814459709778,18.846928776129062-.020861649998551,1.529958821993205,1.169036254611456,1.408899376152476,2.279802956873937.921096118889182,7.082814860234066-2.69484720534092,15.992247668222262-8.982066495587787,17.465571415012164-16.143950041487187.73819768712292-5.011710943967046-5.106713295002919-7.223651341053483-9.20621654995557-7.147060869796405l-.179718862872505-.003463967215794Z" style="fill:none; stroke:#231f20; stroke-width:2.879781675707056px;"/><path d="M230.492779386644543,54.751769415684976c-2.647481471765786.150865880672427-4.589725258629187-1.489346376012691-6.534926721415104-2.84365031195739-7.449077515862882-4.382215406925752-14.850641055638334-14.831966913510769-21.306052847279716-26.507216208166938-.481217286207539-.092138531143064-.251099544548197,1.325452851961018-.266765671232861,1.806595929770992.409863084732933,6.665338042170333.641562721260925,11.873312595602329.687030070204855,15.66532203373572.150958009931855,4.314648140429199-.125054377474953,9.596328631583674-6.011923434842174,8.156200672483465-4.538932339293751-1.220975648340755-2.996449351567207-6.295026270910967-2.866392054374955-9.841654577401641.302450716410021-5.190138455824126.261312368944346-11.149074626531728.214082209402477-16.356261073193309-.044188768439199-2.784040801128867-.071347961276842-5.349979583252207-.33618119154562-8.107369596469653-.106743055222978-1.816897993538078-.49955024443625-3.602454362053322.002671977506907-5.317932286137875.786232172067685-2.643947091373775,5.087567139487874-3.980279084078575,6.692089653397488-1.330421838516486,6.781422857418875,10.016601487779553,13.619082672814329,22.454681128678203,23.472197133009104,29.245847904856419,1.059329720341339.69617276588906,1.365581161928276-.414925607532496,1.355731755367742-1.305112160884164.062952031645182-1.979490701136456.088515634304713-4.04200112388753.100931394517829-5.991769584814392-.19687797309598-4.494776031629954-.585179861551296-9.436514682267443-.642618845178731-13.755483822302267.102750865846247-2.776489284891795-.497459539126794-6.60912212733092.323532276875994-9.590654098339655,1.29965124453156-3.386165898931722,6.391873900525752-3.654927678568129,6.970402367238421.178804385188414.283369863771441,3.362730997607287,3.156552703174384,35.733294356718034,3.489147601187142,39.974706848754067.088269558076718,3.044597355326914-1.62746576669997,6.053592851923895-5.138783931075523,5.917438084663445l-.204171741763275.002609698731248Z" style="fill:none; stroke:#231f20; stroke-width:2.879781675707056px;"/><path d="M286.641803961270853,49.669322901154374c.031133308364588,3.805146908121969-5.613196570602668,7.178594886498104-8.265646345325877,4.06158970541037-2.32826323790141-2.559689378123949-3.206454623294121-6.048237305911243-5.121079507805916-10.004101989254195-.409701273811152-.899928232374805-.565545985977224-1.518425803853461-1.209546580828828-2.036188323285387-.584613052576969-.362210142007825-1.325716916950114-.258788319317318-2.01238230508352-.081991797380397-5.765875694456554,1.490124019728682-11.620606349526497,3.337516483350555-17.530802780984232,5.557044921488341-1.838729017254082.56198867074454-2.68951344022571,2.298739139054305-4.204411435468501,3.392679143626083-2.315310851514369,1.836741188082669-6.183426986792256.175954547097717-5.897309017580483-2.924040076315578.280723977421076-2.309825392561834,2.360576081411637-5.329644868188552,3.38362305935334-7.754099651483557,2.47680456388116-4.777564752457693,4.517146219359347-9.807002640107385,6.427619469977799-15.072793482107954,1.763201494477471-4.692783294169203,5.447675710096519-14.360933028479849,6.197243306762175-16.440515945148945.2306170243628-1.215966811132603-.78137717950267-2.615879635162855-.257619438985785-3.89599559522685.991846360973796-2.598877688053108,5.05531708993658-3.024766099664703,6.939509662970522-1.181803957158991,2.844221172326797,2.789450409825804,3.258031410137846,6.706988837593599,4.935416573225666,10.132241019337016,4.095384317251956,9.873065359624889,8.087419054072598,18.551519952132367,11.96998541598623,26.0402529060284.919405682778233,1.758513619761288,1.864007365315047,3.590840829643639,2.813846660517811,5.423571317165624.929709347503376,1.966300070158468,1.702789864448278,2.716295534533856,1.830271797165551,4.614369566965252l.001281466104047.169782237340769ZM269.853877652989468,35.956978701293338c.180880114608954-.376510934080216-.047847660454863-.975272622583361-.226838443106317-1.40364337974097-2.234908884882316-5.361402254071436-4.421632705594675-10.703530989216233-6.550379978154524-15.983490841788807-.210905936968629-.487631505080572-.640227535644954-1.638943055851996-1.031220019176544-.728429073227744-1.861078220817944,5.057924224074668-4.189048113981698,11.428642470373234-7.492598083190387,20.077595271191967-.198971830581286.523337116679613-.512812791075703,1.363361200867075-.407465906308062,1.779197625499364.14515115112772.504390167476231.78116641217639.288645760245345,1.211679348021789.167277635988285,4.210443288142415-1.39840824743078,8.58750788296129-2.493185936409645,13.088997704444409-3.253209442318621.466315228009989-.077683247860477,1.110550439407234-.203235136317744,1.3466292106732-.549260627338299l.061196166796435-.106037168265175Z" style="fill:none; stroke:#231f20; stroke-width:2.879781675707056px;"/><path d="M328.22924064779545,43.623008848910104c-.465116313953331,3.413982191126706-5.564228320597977,1.658989149749686-7.822445551364581,1.981542561154129-3.090145076022964.002467234806318-6.169324152384434.302299833712823-9.140288373760995.949066657531148-2.537772870178742.605223787322757-5.492685998180605,1.171806476711936-7.912835781096874,1.905831405092613-1.909372405274553.636221350918277-4.495737364872184,1.703306944331416-6.56880498762257,2.348819595858004-3.185627520413618,1.300522990764875-8.375909381782549.929342054458175-8.176025769931584-3.41922844686087-.040492403981261-4.372573925578763.107029193311973-8.898595970160386.29644445348822-13.060197853061254.451572738915274-7.962337893965014.519065667036557-16.28776247605856-.147429052565712-24.01993850722647-.101789851159992-1.994528210392673-.422018170092997-3.876327520254563.567366233806752-5.485124504939449.97639930601872-1.653250101995582,3.385563363270194-2.677596955187255,5.118403747730554-1.684940108514638,1.203779600527923.745112153175796,1.579993006462246,2.154156971537304,1.772580283628486,3.408806335908594.472078150096422,3.0172272082782.977084430514878,7.917392287745315,1.515873930486123,14.691965525818887.381963718162297,4.688306023102996,1.020425798047654,14.590507494043777,1.386842949112179,19.143382131675025.116801486517943.58577800067178.474323721035034.502663960578502,1.127677346858036.349120707687689,5.681168514460296-1.805382178104992,11.484711902236086-2.87234683974566,17.299577392588617-2.944133760915065,4.120315246171231-.1004571294161,10.842416662064352-.060575437046282,10.697703452773567,5.653660543934166l-.014640274130215.181367716857494Z" style="fill:none; stroke:#231f20; stroke-width:2.879781675707056px;"/><path d="M26.109255897309595,52.636209353022423c-6.197820027202397.11162473055083-11.20183185298356-3.701390185806304-15.205930280260873-8.255154678236067-2.13427129721822-2.44570164527795-4.079984425834482-5.1099072372308-5.841750021496409-8.125204408443096-.776418636273775-1.366757009223875-1.521824352473232-2.990529346920084-1.458027111732918-4.538801050312031.011971510870353-1.202813937328756.656727967989355-2.643014352326645,1.63832695309975-3.240372505597406,2.078061067285489-1.18474370551121,4.086651453057129,1.608578349796517,5.697065482235303,2.906143944430369,2.760874835929826,2.595363666252524,5.23061702011546,5.239019337603168,8.444607348906175,7.16264363902701,4.375330066592142,2.87934153668175,10.048940086412586,2.608194621496295,13.168582955327111-1.596756131189977,4.07077699178717-5.846076997831915,3.462065352231548-14.60034758160873,1.702495460762293-20.933900333562633-.933876956823951-3.21717266464475-4.165157132210879-6.910853010103892-2.798433052678774-10.292152555779467,1.258474525007841-3.188524990586302,5.170846320890632-2.229440332521335,6.42604908535759.408204458093678,3.080396331948577,7.273921426942252,4.865302219350269,14.976161671020236,4.538953879915425,22.973309233733744-.566923977363331,9.976639959744716-4.487522994617393,23.228112780156152-16.128308632638436,23.530899522877007l-.183632066796235.00114086495887Z" style="fill:none; stroke:#231f20; stroke-width:2.879781675707056px;"/><path d="M70.338813743252103,52.584675198324476c-16.782303336879522-.140984149658834-25.900620856043133-20.493406886220328-18.076486864122671-34.390872799291174,7.390853250938562-14.543059783432909,30.351347671523399-19.267990213336816,40.50988478331692-5.384106978424825,6.731855842437653,8.950367158467998,7.001075838309589,23.191405735706212-2.678456812438526,31.091621215440682-5.036273333926147,4.544651009742665-13.443846743848553,8.87585921948812-19.578100342054313,8.684037256405645l-.17684076470141-.000678694130329ZM75.663848208411764,14.382139486533561c-6.108085919297991-.048512426745219-13.187096998181005,3.286008993170981-16.961504312429497,8.259690148506706-6.806499861158045,10.198436351694909,5.420922386169877,20.921757199821513,15.536736288130669,17.499851530938031,4.432370762435312-1.161550897299094,8.713880353787317-2.981042775458263,11.946463280180978-6.145769087423105,1.844571222116429-1.658763727651603,3.08718806719753-2.819011501449495,3.875579717279834-5.01314307260327,1.97623299692259-8.727392998016512-5.73149523988377-14.927355598971189-14.201929668105549-14.600126591956723l-.195345305056435-.000502927461639Z" style="fill:none; stroke:#231f20; stroke-width:2.879781675707056px;"/><path d="M134.907180044695451,52.433125121053308c-1.822152249744249.014220236516849-3.777943853679062-1.21045658940966-4.478929443908783-2.990840678461609-.643756761523036-.985219380379931.24858094627416-3.306859552725655-1.358568662029029-3.363783310574945-3.211199404013314.987291376744906-5.615446868719118,2.826126137233587-8.517158661426947,3.717347343901565-8.105675643854738,3.221589542305082-14.959065133128206,1.852232677298161-15.927219987919671-7.782186797352551-.82059722111353-10.05735323983572-.114865927740539-21.730712760987444.153391551683853-31.146290509996106.072677970909353-1.389366610512297.104883285923279-3.091871896289376.993928789275742-4.098197555253137,1.489308964016345-1.508445199120615,4.589014789689827-.867795032669164,5.571236358712667.934451041812281.665745120069005,1.185666406094242.709662630895764,2.637244762316186.688640229206612,3.951765956029703-.041103058822046,2.290154661808629-.196128342005068,5.462525022909176-.426579112878244,9.283092742614826-.222890544772781,5.148376719271255-.765121773647479,9.588762286335623-.176852573696124,14.704956720381233.782766798274679,5.712428464550612,4.903199953284457,6.023132324238759,9.732241257481292,3.995371466919096,2.263368795176575-1.048851263460165,6.716465633100597-2.322820665120162,8.954725529906682-4.762063219694028,1.034020352441075-1.527920975930101.492791574373769-4.488007913771071.64133074716392-5.950360700997408-.315388822910791-4.943665131306261-.620697745453072-9.863612177015966-.677006837588124-14.755639310640618.185171228711624-2.709968824809039-.741638380778568-6.030833780312605,1.003150378692226-8.337678995845636,1.521768673657789-1.950032710617961,5.271425660863315-2.01786489631013,6.074992162216404.548280779166817.764288158668933,3.328234890916065.582235923043299,6.707326874464343.932188131151634,10.205473721425733.802800262565142,12.582701504936267,1.23726895497748,21.329639592615422,1.293353210098758,26.182667279663292-.052198222309016,3.51883498049574.494291143186274,9.40908575064168-4.296525730024769,9.661176952609821l-.1803373361181.002457074291669Z" style="fill:none; stroke:#231f20; stroke-width:2.879781675707056px;"/><path d="M182.908648232052656,55.484238545315748c-1.98806344118384-.06957650165532-3.883900146212909-1.841890474337561-5.503737185460523-3.022190144507476-4.434014355356339-2.97244282497013-9.50390093115584-8.635270125165334-15.563261363060519-8.566424557075152-3.786924057335455-.064559996191747-3.679057209940765,2.333755409972582-4.642798928317461,5.165639872013344-1.394968827216871,3.698344246413399-7.469829718130313,2.711475498401342-8.403983886749302-.875819830704131-.401823139124645-2.325687253181968.211154368720599-5.055495774578958.246062591849295-7.409534773039923.339246352823466-6.731199552486942.283949231945371-16.04944709254778-.098320493968458-23.229039935287801-.038218302694077-.630498189895661-.109762946961382-1.281870420201813-.466098094834706-1.791162411514961-.647708368967869-.935527148825713-2.518782642445331-1.33864408221234-3.094132480676308-2.739978288931525-1.377010981957028-2.605119264730092,1.137745496623211-4.234326210416839,3.437092798490994-4.709046570938881,10.031640805924326-2.466910371776976,25.964215104019786-4.354884246789879,34.204984659163529,3.183911705411447,6.522654223846075,8.04463927001234-1.0279132377118,17.607910747439746-10.568713213695446,24.823094151450277-1.521672916464013,1.098292188249616-2.286076165170925,2.117694703221787-.189504916309488,2.991400836159301,4.509784621166546,2.096319387270341,8.364510030313795,4.430535903911732,11.566680436542811,7.036617535482947,1.733745908834862,1.345234721440647,3.424543464039743,3.366067654869767,2.945135566093995,5.706060394073575-.26952779354815,1.753068543563131-1.958030651740046,3.406621808422642-3.704569719346182,3.435079118846261l-.164835769722231.001392898562699ZM167.950210783980765,11.457015266252711c-2.953100784491653-.001392719708747-5.885787448723931.390039033502035-9.715452807094152,1.190607201318926-1.191895889441184.222352879562095-2.010127069965165,1.084821340558847-1.913800611673651,2.335842782162217.546458414895824,7.168692590024875,1.02272737992098,13.497158850259439,1.269814459709778,18.846928776129062-.020861649998551,1.529958821993205,1.169036254611456,1.408899376152476,2.279802956873937.921096118889182,7.082814860234066-2.69484720534092,15.992247668222262-8.982066495587787,17.465571415012164-16.143950041487187.73819768712292-5.011710943967046-5.106713295002919-7.223651341053483-9.20621654995557-7.147060869796405l-.179718862872505-.003463967215794Z" style="fill:none; stroke:#231f20; stroke-width:2.879781675707056px;"/><path d="M229.052888548791088,54.751769415684976c-2.647481471765786.150865880672427-4.589725258629187-1.489346376012691-6.534926721415104-2.84365031195739-7.449077515862882-4.382215406925752-14.850641055638334-14.831966913510769-21.306052847279716-26.507216208166938-.481217286207539-.092138531143064-.251099544548197,1.325452851961018-.266765671232861,1.806595929770992.409863084732933,6.665338042170333.641562721260925,11.873312595602329.687030070204855,15.66532203373572.150958009931855,4.314648140429199-.125054377474953,9.596328631583674-6.011923434842174,8.156200672483465-4.538932339293751-1.220975648340755-2.996449351567207-6.295026270910967-2.866392054374955-9.841654577401641.302450716410021-5.190138455824126.261312368944346-11.149074626531728.214082209402477-16.356261073193309-.044188768439199-2.784040801128867-.071347961276842-5.349979583252207-.33618119154562-8.107369596469653-.106743055222978-1.816897993538078-.49955024443625-3.602454362053322.002671977506907-5.317932286137875.786232172067685-2.643947091373775,5.087567139487874-3.980279084078575,6.692089653397488-1.330421838516486,6.781422857418875,10.016601487779553,13.619082672814329,22.454681128678203,23.472197133009104,29.245847904856419,1.059329720341339.69617276588906,1.365581161928276-.414925607532496,1.355731755367742-1.305112160884164.062952031645182-1.979490701136456.088515634304713-4.04200112388753.100931394517829-5.991769584814392-.19687797309598-4.494776031629954-.585179861551296-9.436514682267443-.642618845178731-13.755483822302267.102750865846247-2.776489284891795-.497459539126794-6.60912212733092.323532276875994-9.590654098339655,1.29965124453156-3.386165898931722,6.391873900525752-3.654927678568129,6.970402367238421.178804385188414.283369863771441,3.362730997607287,3.156552703174384,35.733294356718034,3.489147601187142,39.974706848754067.088269558076718,3.044597355326914-1.62746576669997,6.053592851923895-5.138783931075523,5.917438084663445l-.204171741763275.002609698731248Z" style="fill:none; stroke:#231f20; stroke-width:2.879781675707056px;"/><path d="M285.201913123417398,49.669322901154374c.031133308364588,3.805146908121969-5.613196570602668,7.178594886498104-8.265646345325877,4.06158970541037-2.32826323790141-2.559689378123949-3.206454623294121-6.048237305911243-5.121079507805916-10.004101989254195-.409701273811152-.899928232374805-.565545985977224-1.518425803853461-1.209546580828828-2.036188323285387-.584613052576969-.362210142007825-1.325716916950114-.258788319317318-2.01238230508352-.081991797380397-5.765875694456554,1.490124019728682-11.620606349526497,3.337516483350555-17.530802780984232,5.557044921488341-1.838729017254082.56198867074454-2.68951344022571,2.298739139054305-4.204411435468501,3.392679143626083-2.315310851514369,1.836741188082669-6.183426986792256.175954547097717-5.897309017580483-2.924040076315578.280723977421076-2.309825392561834,2.360576081411637-5.329644868188552,3.38362305935334-7.754099651483557,2.47680456388116-4.777564752457693,4.517146219359347-9.807002640107385,6.427619469977799-15.072793482107954,1.763201494477471-4.692783294169203,5.447675710096519-14.360933028479849,6.197243306762175-16.440515945148945.2306170243628-1.215966811132603-.78137717950267-2.615879635162855-.257619438985785-3.89599559522685.991846360973796-2.598877688053108,5.05531708993658-3.024766099664703,6.939509662970522-1.181803957158991,2.844221172326797,2.789450409825804,3.258031410137846,6.706988837593599,4.935416573225666,10.132241019337016,4.095384317251956,9.873065359624889,8.087419054072598,18.551519952132367,11.96998541598623,26.0402529060284.919405682778233,1.758513619761288,1.864007365315047,3.590840829643639,2.813846660517811,5.423571317165624.929709347503376,1.966300070158468,1.702789864448278,2.716295534533856,1.830271797165551,4.614369566965252l.001281466104047.169782237340769ZM268.413986815136013,35.956978701293338c.180880114608954-.376510934080216-.047847660454863-.975272622583361-.226838443106317-1.40364337974097-2.234908884882316-5.361402254071436-4.421632705594675-10.703530989216233-6.550379978154524-15.983490841788807-.210905936968629-.487631505080572-.640227535644954-1.638943055851996-1.031220019176544-.728429073227744-1.861078220817944,5.057924224074668-4.189048113981698,11.428642470373234-7.492598083190387,20.077595271191967-.198971830581286.523337116679613-.512812791075703,1.363361200867075-.407465906308062,1.779197625499364.14515115112772.504390167476231.78116641217639.288645760245345,1.211679348021789.167277635988285,4.210443288142415-1.39840824743078,8.58750788296129-2.493185936409645,13.088997704444409-3.253209442318621.466315228009989-.077683247860477,1.110550439407234-.203235136317744,1.3466292106732-.549260627338299l.061196166796435-.106037168265175Z" style="fill:none; stroke:#231f20; stroke-width:2.879781675707056px;"/><path d="M326.789349809941996,43.623008848910104c-.465116313953331,3.413982191126706-5.564228320597977,1.658989149749686-7.822445551364581,1.981542561154129-3.090145076022964.002467234806318-6.169324152384434.302299833712823-9.140288373760995.949066657531148-2.537772870178742.605223787322757-5.492685998180605,1.171806476711936-7.912835781096874,1.905831405092613-1.909372405274553.636221350918277-4.495737364872184,1.703306944331416-6.56880498762257,2.348819595858004-3.185627520413618,1.300522990764875-8.375909381782549.929342054458175-8.176025769931584-3.41922844686087-.040492403981261-4.372573925578763.107029193311973-8.898595970160386.29644445348822-13.060197853061254.451572738915274-7.962337893965014.519065667036557-16.28776247605856-.147429052565712-24.01993850722647-.101789851159992-1.994528210392673-.422018170092997-3.876327520254563.567366233806752-5.485124504939449.97639930601872-1.653250101995582,3.385563363270194-2.677596955187255,5.118403747730554-1.684940108514638,1.203779600527923.745112153175796,1.579993006462246,2.154156971537304,1.772580283628486,3.408806335908594.472078150096422,3.0172272082782.977084430514878,7.917392287745315,1.515873930486123,14.691965525818887.381963718162297,4.688306023102996,1.020425798047654,14.590507494043777,1.386842949112179,19.143382131675025.116801486517943.58577800067178.474323721035034.502663960578502,1.127677346858036.349120707687689,5.681168514460296-1.805382178104992,11.484711902236086-2.87234683974566,17.299577392588617-2.944133760915065,4.120315246171231-.1004571294161,10.842416662064352-.060575437046282,10.697703452773567,5.653660543934166l-.014640274130215.181367716857494Z" style="fill:none; stroke:#231f20; stroke-width:2.879781675707056px;"/><path d="M24.66936505945614,52.636209353022423c-6.197820027202397.11162473055083-11.20183185298356-3.701390185806304-15.205930280260873-8.255154678236067-2.13427129721822-2.44570164527795-4.079984425834482-5.1099072372308-5.841750021496409-8.125204408443096-.776418636273775-1.366757009223875-1.521824352473232-2.990529346920084-1.458027111732918-4.538801050312031.011971510870353-1.202813937328756.656727967989355-2.643014352326645,1.63832695309975-3.240372505597406,2.078061067285489-1.18474370551121,4.086651453057129,1.608578349796517,5.697065482235303,2.906143944430369,2.760874835929826,2.595363666252524,5.23061702011546,5.239019337603168,8.444607348906175,7.16264363902701,4.375330066592142,2.87934153668175,10.048940086412586,2.608194621496295,13.168582955327111-1.596756131189977,4.07077699178717-5.846076997831915,3.462065352231548-14.60034758160873,1.702495460762293-20.933900333562633-.933876956823951-3.21717266464475-4.165157132210879-6.910853010103892-2.798433052678774-10.292152555779467,1.258474525007841-3.188524990586302,5.170846320890632-2.229440332521335,6.42604908535759.408204458093678,3.080396331948577,7.273921426942252,4.865302219350269,14.976161671020236,4.538953879915425,22.973309233733744-.566923977363331,9.976639959744716-4.487522994617393,23.228112780156152-16.128308632638436,23.530899522877007l-.183632066796235.00114086495887Z" style="fill:none; stroke:#231f20; stroke-width:2.879781675707056px;"/><path d="M68.898922905398649,52.584675198324476c-16.782303336879522-.140984149658834-25.900620856043133-20.493406886220328-18.076486864122671-34.390872799291174,7.390853250938562-14.543059783432909,30.351347671523399-19.267990213336816,40.50988478331692-5.384106978424825,6.731855842437653,8.950367158467998,7.001075838309589,23.191405735706212-2.678456812438526,31.091621215440682-5.036273333926147,4.544651009742665-13.443846743848553,8.87585921948812-19.578100342054313,8.684037256405645l-.17684076470141-.000678694130329ZM74.22395737055831,14.382139486533561c-6.108085919297991-.048512426745219-13.187096998181005,3.286008993170981-16.961504312429497,8.259690148506706-6.806499861158045,10.198436351694909,5.420922386169877,20.921757199821513,15.536736288130669,17.499851530938031,4.432370762435312-1.161550897299094,8.713880353787317-2.981042775458263,11.946463280180978-6.145769087423105,1.844571222116429-1.658763727651603,3.08718806719753-2.819011501449495,3.875579717279834-5.01314307260327,1.97623299692259-8.727392998016512-5.73149523988377-14.927355598971189-14.201929668105549-14.600126591956723l-.195345305056435-.000502927461639Z" style="fill:none; stroke:#231f20; stroke-width:2.879781675707056px;"/><path d="M133.467289206841997,52.433125121053308c-1.822152249744249.014220236516849-3.777943853679062-1.21045658940966-4.478929443908783-2.990840678461609-.643756761523036-.985219380379931.24858094627416-3.306859552725655-1.358568662029029-3.363783310574945-3.211199404013314.987291376744906-5.615446868719118,2.826126137233587-8.517158661426947,3.717347343901565-8.105675643854738,3.221589542305082-14.959065133128206,1.852232677298161-15.927219987919671-7.782186797352551-.82059722111353-10.05735323983572-.114865927740539-21.730712760987444.153391551683853-31.146290509996106.072677970909353-1.389366610512297.104883285923279-3.091871896289376.993928789275742-4.098197555253137,1.489308964016345-1.508445199120615,4.589014789689827-.867795032669164,5.571236358712667.934451041812281.665745120069005,1.185666406094242.709662630895764,2.637244762316186.688640229206612,3.951765956029703-.041103058822046,2.290154661808629-.196128342005068,5.462525022909176-.426579112878244,9.283092742614826-.222890544772781,5.148376719271255-.765121773647479,9.588762286335623-.176852573696124,14.704956720381233.782766798274679,5.712428464550612,4.903199953284457,6.023132324238759,9.732241257481292,3.995371466919096,2.263368795176575-1.048851263460165,6.716465633100597-2.322820665120162,8.954725529906682-4.762063219694028,1.034020352441075-1.527920975930101.492791574373769-4.488007913771071.64133074716392-5.950360700997408-.315388822910791-4.943665131306261-.620697745453072-9.863612177015966-.677006837588124-14.755639310640618.185171228711624-2.709968824809039-.741638380778568-6.030833780312605,1.003150378692226-8.337678995845636,1.521768673657789-1.950032710617961,5.271425660863315-2.01786489631013,6.074992162216404.548280779166817.764288158668933,3.328234890916065.582235923043299,6.707326874464343.932188131151634,10.205473721425733.802800262565142,12.582701504936267,1.23726895497748,21.329639592615422,1.293353210098758,26.182667279663292-.052198222309016,3.51883498049574.494291143186274,9.40908575064168-4.296525730024769,9.661176952609821l-.1803373361181.002457074291669Z" style="fill:none; stroke:#231f20; stroke-width:2.879781675707056px;"/><path d="M181.468757394199201,55.484238545315748c-1.98806344118384-.06957650165532-3.883900146212909-1.841890474337561-5.503737185460523-3.022190144507476-4.434014355356339-2.97244282497013-9.50390093115584-8.635270125165334-15.563261363060519-8.566424557075152-3.786924057335455-.064559996191747-3.679057209940765,2.333755409972582-4.642798928317461,5.165639872013344-1.394968827216871,3.698344246413399-7.469829718130313,2.711475498401342-8.403983886749302-.875819830704131-.401823139124645-2.325687253181968.211154368720599-5.055495774578958.246062591849295-7.409534773039923.339246352823466-6.731199552486942.283949231945371-16.04944709254778-.098320493968458-23.229039935287801-.038218302694077-.630498189895661-.109762946961382-1.281870420201813-.466098094834706-1.791162411514961-.647708368967869-.935527148825713-2.518782642445331-1.33864408221234-3.094132480676308-2.739978288931525-1.377010981957028-2.605119264730092,1.137745496623211-4.234326210416839,3.437092798490994-4.709046570938881,10.031640805924326-2.466910371776976,25.964215104019786-4.354884246789879,34.204984659163529,3.183911705411447,6.522654223845166,8.04463927001234-1.0279132377118,17.607910747439746-10.568713213695446,24.823094151450277-1.521672916464013,1.098292188249616-2.286076165170925,2.117694703221787-.189504916309488,2.991400836159301,4.509784621166546,2.096319387270341,8.364510030313795,4.430535903911732,11.566680436542811,7.036617535482947,1.733745908834862,1.345234721440647,3.424543464039743,3.366067654869767,2.945135566093995,5.706060394073575-.26952779354815,1.753068543563131-1.958030651740046,3.406621808422642-3.704569719346182,3.435079118846261l-.164835769722231.001392898562699ZM166.510319946127311,11.457015266252711c-2.953100784491653-.001392719708747-5.885787448723931.390039033502035-9.715452807094152,1.190607201318926-1.191895889441184.222352879562095-2.010127069965165,1.084821340558847-1.913800611673651,2.335842782162217.546458414895824,7.168692590024875,1.02272737992098,13.497158850259439,1.269814459709778,18.846928776129062-.020861649998551,1.529958821993205,1.169036254611456,1.408899376152476,2.279802956873937.921096118889182,7.082814860234066-2.69484720534092,15.992247668222262-8.982066495587787,17.465571415012164-16.143950041487187.73819768712292-5.011710943967046-5.106713295002919-7.223651341053483-9.20621654995557-7.147060869796405l-.179718862872505-.003463967215794Z" style="fill:none; stroke:#231f20; stroke-width:2.879781675707056px;"/><path d="M227.612997710937634,54.751769415684976c-2.647481471765786.150865880672427-4.589725258629187-1.489346376012691-6.534926721415104-2.84365031195739-7.449077515862882-4.382215406925752-14.850641055638334-14.831966913510769-21.306052847279716-26.507216208166938-.481217286207539-.092138531143064-.251099544548197,1.325452851961018-.266765671232861,1.806595929770992.409863084732933,6.665338042170333.641562721260925,11.873312595602329.687030070204855,15.66532203373572.150958009931855,4.314648140429199-.125054377474953,9.596328631583674-6.011923434842174,8.156200672483465-4.538932339293751-1.220975648340755-2.996449351567207-6.295026270910967-2.866392054374955-9.841654577401641.302450716410021-5.190138455824126.261312368944346-11.149074626531728.214082209402477-16.356261073193309-.044188768439199-2.784040801128867-.071347961276842-5.349979583252207-.33618119154562-8.107369596469653-.106743055222978-1.816897993538078-.49955024443625-3.602454362053322.002671977506907-5.317932286137875.786232172067685-2.643947091373775,5.087567139487874-3.980279084078575,6.692089653397488-1.330421838516486,6.781422857418875,10.016601487779553,13.619082672814329,22.454681128678203,23.472197133009104,29.245847904856419,1.059329720341339.69617276588906,1.365581161928276-.414925607532496,1.355731755367742-1.305112160884164.062952031645182-1.979490701136456.088515634304713-4.04200112388753.100931394517829-5.991769584814392-.19687797309598-4.494776031629954-.585179861551296-9.436514682267443-.642618845178731-13.755483822302267.102750865846247-2.776489284891795-.497459539126794-6.60912212733092.323532276875994-9.590654098339655,1.29965124453156-3.386165898931722,6.391873900525752-3.654927678568129,6.970402367238421.178804385188414.283369863771441,3.362730997607287,3.156552703174384,35.733294356718034,3.489147601187142,39.974706848754067.088269558076718,3.044597355326914-1.62746576669997,6.053592851923895-5.138783931075523,5.917438084663445l-.204171741763275.002609698731248Z" style="fill:none; stroke:#231f20; stroke-width:2.879781675707056px;"/><path d="M283.762022285563944,49.669322901154374c.031133308364588,3.805146908121969-5.613196570602668,7.178594886498104-8.265646345325877,4.06158970541037-2.32826323790141-2.559689378123949-3.206454623294121-6.048237305911243-5.121079507805916-10.004101989254195-.409701273811152-.899928232374805-.565545985977224-1.518425803853461-1.209546580828828-2.036188323285387-.584613052576969-.362210142007825-1.325716916950114-.258788319317318-2.01238230508352-.081991797380397-5.765875694456554,1.490124019728682-11.620606349526497,3.337516483350555-17.530802780984232,5.557044921488341-1.838729017254082.56198867074454-2.68951344022571,2.298739139054305-4.204411435468501,3.392679143626083-2.315310851514369,1.836741188082669-6.183426986792256.175954547097717-5.897309017580483-2.924040076315578.280723977421076-2.309825392561834,2.360576081411637-5.329644868188552,3.38362305935334-7.754099651483557,2.47680456388116-4.777564752457693,4.517146219359347-9.807002640107385,6.427619469977799-15.072793482107954,1.763201494477471-4.692783294169203,5.447675710096519-14.360933028479849,6.197243306762175-16.440515945148945.2306170243628-1.215966811132603-.78137717950267-2.615879635162855-.257619438985785-3.89599559522685.991846360973796-2.598877688053108,5.05531708993658-3.024766099664703,6.939509662970522-1.181803957158991,2.844221172326797,2.789450409825804,3.258031410137846,6.706988837593599,4.935416573225666,10.132241019337016,4.095384317251956,9.873065359624889,8.087419054072598,18.551519952132367,11.96998541598623,26.0402529060284.919405682778233,1.758513619761288,1.864007365315047,3.590840829643639,2.813846660517811,5.423571317165624.929709347503376,1.966300070158468,1.702789864448278,2.716295534533856,1.830271797165551,4.614369566965252l.001281466104047.169782237340769ZM266.974095977282559,35.956978701293338c.180880114608954-.376510934080216-.047847660454863-.975272622583361-.226838443106317-1.40364337974097-2.234908884882316-5.361402254071436-4.421632705594675-10.703530989216233-6.550379978154524-15.983490841788807-.210905936968629-.487631505080572-.640227535644954-1.638943055851996-1.031220019176544-.728429073227744-1.861078220817944,5.057924224074668-4.189048113981698,11.428642470373234-7.492598083190387,20.077595271191967-.198971830581286.523337116679613-.512812791075703,1.363361200867075-.407465906308062,1.779197625499364.14515115112772.504390167476231.78116641217639.288645760245345,1.211679348021789.167277635988285,4.210443288142415-1.39840824743078,8.58750788296129-2.493185936409645,13.088997704444409-3.253209442318621.466315228009989-.077683247860477,1.110550439407234-.203235136317744,1.3466292106732-.549260627338299l.061196166796435-.106037168265175Z" style="fill:none; stroke:#231f20; stroke-width:2.879781675707056px;"/><path d="M325.349458972088541,43.623008848910104c-.465116313953331,3.413982191126706-5.564228320597977,1.658989149749686-7.822445551364581,1.981542561154129-3.090145076022964.002467234806318-6.169324152384434.302299833712823-9.140288373760995.949066657531148-2.537772870178742.605223787322757-5.492685998180605,1.171806476711936-7.912835781096874,1.905831405092613-1.909372405274553.636221350918277-4.495737364872184,1.703306944331416-6.56880498762257,2.348819595858004-3.185627520413618,1.300522990764875-8.375909381782549.929342054458175-8.176025769931584-3.41922844686087-.040492403981261-4.372573925578763.107029193311973-8.898595970160386.29644445348822-13.060197853061254.451572738915274-7.962337893965014.519065667036557-16.28776247605856-.147429052565712-24.01993850722647-.101789851159992-1.994528210392673-.422018170092997-3.876327520254563.567366233806752-5.485124504939449.97639930601872-1.653250101995582,3.385563363270194-2.677596955187255,5.118403747730554-1.684940108514638,1.203779600527923.745112153175796,1.579993006462246,2.154156971537304,1.772580283628486,3.408806335908594.472078150096422,3.0172272082782.977084430514878,7.917392287745315,1.515873930486123,14.691965525818887.381963718162297,4.688306023102996,1.020425798047654,14.590507494043777,1.386842949112179,19.143382131675025.116801486517943.58577800067178.474323721035034.502663960578502,1.127677346858036.349120707687689,5.681168514460296-1.805382178104992,11.484711902236086-2.87234683974566,17.299577392588617-2.944133760915065,4.120315246171231-.1004571294161,10.842416662064352-.060575437046282,10.697703452773567,5.653660543934166l-.014640274130215.181367716857494Z" style="fill:none; stroke:#231f20; stroke-width:2.879781675707056px;"/><path d="M24.66936505945614,52.636209353022423c-6.197820027202397.11162473055083-11.20183185298356-3.701390185806304-15.205930280260873-8.255154678236067-2.13427129721822-2.44570164527795-4.079984425834482-5.1099072372308-5.841750021496409-8.125204408443096-.776418636273775-1.366757009223875-1.521824352473232-2.990529346920084-1.458027111732918-4.538801050312031.011971510870353-1.202813937328756.656727967989355-2.643014352326645,1.63832695309975-3.240372505597406,2.078061067285489-1.18474370551121,4.086651453057129,1.608578349796517,5.697065482235303,2.906143944430369,2.760874835929826,2.595363666252524,5.23061702011546,5.239019337603168,8.444607348906175,7.16264363902701,4.375330066592142,2.87934153668175,10.048940086412586,2.608194621496295,13.168582955327111-1.596756131189977,4.07077699178717-5.846076997831915,3.462065352231548-14.60034758160873,1.702495460762293-20.933900333562633-.933876956823951-3.21717266464475-4.165157132210879-6.910853010103892-2.798433052678774-10.292152555779467,1.258474525007841-3.188524990586302,5.170846320890632-2.229440332521335,6.42604908535759.408204458093678,3.080396331948577,7.273921426942252,4.865302219350269,14.976161671020236,4.538953879915425,22.973309233733744-.566923977363331,9.976639959744716-4.487522994617393,23.228112780156152-16.128308632638436,23.530899522877007l-.183632066796235.00114086495887Z" style="fill:none; stroke:#e7d1a1; stroke-width:1.079918128390146px;"/><path d="M68.898922905398649,52.584675198324476c-16.782303336879522-.140984149658834-25.900620856043133-20.493406886220328-18.076486864122671-34.390872799291174,7.390853250938562-14.543059783432909,30.351347671523399-19.267990213336816,40.50988478331692-5.384106978424825,6.731855842437653,8.950367158467998,7.001075838309589,23.191405735706212-2.678456812438526,31.091621215440682-5.036273333926147,4.544651009742665-13.443846743848553,8.87585921948812-19.578100342054313,8.684037256405645l-.17684076470141-.000678694130329ZM74.22395737055831,14.382139486533561c-6.108085919297991-.048512426745219-13.187096998181005,3.286008993170981-16.961504312429497,8.259690148506706-6.806499861158045,10.198436351694909,5.420922386169877,20.921757199821513,15.536736288130669,17.499851530938031,4.432370762435312-1.161550897299094,8.713880353787317-2.981042775458263,11.946463280180978-6.145769087423105,1.844571222116429-1.658763727651603,3.08718806719753-2.819011501449495,3.875579717279834-5.01314307260327,1.97623299692259-8.727392998016512-5.73149523988377-14.927355598971189-14.201929668105549-14.600126591956723l-.195345305056435-.000502927461639Z" style="fill:none; stroke:#e7d1a1; stroke-width:1.079918128390146px;"/><path d="M133.467289206841997,52.433125121053308c-1.822152249744249.014220236516849-3.777943853679062-1.21045658940966-4.478929443908783-2.990840678461609-.643756761523036-.985219380379931.24858094627416-3.306859552725655-1.358568662029029-3.363783310574945-3.211199404013314.987291376744906-5.615446868719118,2.826126137233587-8.517158661426947,3.717347343901565-8.105675643854738,3.221589542305082-14.959065133128206,1.852232677298161-15.927219987919671-7.782186797352551-.82059722111353-10.05735323983572-.114865927740539-21.730712760987444.153391551683853-31.146290509996106.072677970909353-1.389366610512297.104883285923279-3.091871896289376.993928789275742-4.098197555253137,1.489308964016345-1.508445199120615,4.589014789689827-.867795032669164,5.571236358712667.934451041812281.665745120069005,1.185666406094242.709662630895764,2.637244762316186.688640229206612,3.951765956029703-.041103058822046,2.290154661808629-.196128342005068,5.462525022909176-.426579112878244,9.283092742614826-.222890544772781,5.148376719271255-.765121773647479,9.588762286335623-.176852573696124,14.704956720381233.782766798274679,5.712428464550612,4.903199953284457,6.023132324238759,9.732241257481292,3.995371466919096,2.263368795176575-1.048851263460165,6.716465633100597-2.322820665120162,8.954725529906682-4.762063219694028,1.034020352441075-1.527920975930101.492791574373769-4.488007913771071.64133074716392-5.950360700997408-.315388822910791-4.943665131306261-.620697745453072-9.863612177015966-.677006837588124-14.755639310640618.185171228711624-2.709968824809039-.741638380778568-6.030833780312605,1.003150378692226-8.337678995845636,1.521768673657789-1.950032710617961,5.271425660863315-2.01786489631013,6.074992162216404.548280779166817.764288158668933,3.328234890916065.582235923043299,6.707326874464343.932188131151634,10.205473721425733.802800262565142,12.582701504936267,1.23726895497748,21.329639592615422,1.293353210098758,26.182667279663292-.052198222309016,3.51883498049574.494291143186274,9.40908575064168-4.296525730024769,9.661176952609821l-.1803373361181.002457074291669Z" style="fill:none; stroke:#e7d1a1; stroke-width:1.079918128390146px;"/><path d="M181.468757394199201,55.484238545315748c-1.98806344118384-.06957650165532-3.883900146212909-1.841890474337561-5.503737185460523-3.022190144507476-4.434014355356339-2.97244282497013-9.50390093115584-8.635270125165334-15.563261363060519-8.566424557075152-3.786924057335455-.064559996191747-3.679057209940765,2.333755409972582-4.642798928317461,5.165639872013344-1.394968827216871,3.698344246413399-7.469829718130313,2.711475498401342-8.403983886749302-.875819830704131-.401823139124645-2.325687253181968.211154368720599-5.055495774578958.246062591849295-7.409534773039923.339246352823466-6.731199552486942.283949231945371-16.04944709254778-.098320493968458-23.229039935287801-.038218302694077-.630498189895661-.109762946961382-1.281870420201813-.466098094834706-1.791162411514961-.647708368967869-.935527148825713-2.518782642445331-1.33864408221234-3.094132480676308-2.739978288931525-1.377010981957028-2.605119264730092,1.137745496623211-4.234326210416839,3.437092798490994-4.709046570938881,10.031640805924326-2.466910371776976,25.964215104019786-4.354884246789879,34.204984659163529,3.183911705411447,6.522654223845166,8.04463927001234-1.0279132377118,17.607910747439746-10.568713213695446,24.823094151450277-1.521672916464013,1.098292188249616-2.286076165170925,2.117694703221787-.189504916309488,2.991400836159301,4.509784621166546,2.096319387270341,8.364510030313795,4.430535903911732,11.566680436542811,7.036617535482947,1.733745908834862,1.345234721440647,3.424543464039743,3.366067654869767,2.945135566093995,5.706060394073575-.26952779354815,1.753068543563131-1.958030651740046,3.406621808422642-3.704569719346182,3.435079118846261l-.164835769722231.001392898562699ZM166.510319946127311,11.457015266252711c-2.953100784491653-.001392719708747-5.885787448723931.390039033502035-9.715452807094152,1.190607201318926-1.191895889441184.222352879562095-2.010127069965165,1.084821340558847-1.913800611673651,2.335842782162217.546458414895824,7.168692590024875,1.02272737992098,13.497158850259439,1.269814459709778,18.846928776129062-.020861649998551,1.529958821993205,1.169036254611456,1.408899376152476,2.279802956873937.921096118889182,7.082814860234066-2.69484720534092,15.992247668222262-8.982066495587787,17.465571415012164-16.143950041487187.73819768712292-5.011710943967046-5.106713295002919-7.223651341053483-9.20621654995557-7.147060869796405l-.179718862872505-.003463967215794Z" style="fill:none; stroke:#e7d1a1; stroke-width:1.079918128390146px;"/><path d="M227.612997710937634,54.751769415684976c-2.647481471765786.150865880672427-4.589725258629187-1.489346376012691-6.534926721415104-2.84365031195739-7.449077515862882-4.382215406925752-14.850641055638334-14.831966913510769-21.306052847279716-26.507216208166938-.481217286207539-.092138531143064-.251099544548197,1.325452851961018-.266765671232861,1.806595929770992.409863084732933,6.665338042170333.641562721260925,11.873312595602329.687030070204855,15.66532203373572.150958009931855,4.314648140429199-.125054377474953,9.596328631583674-6.011923434842174,8.156200672483465-4.538932339293751-1.220975648340755-2.996449351567207-6.295026270910967-2.866392054374955-9.841654577401641.302450716410021-5.190138455824126.261312368944346-11.149074626531728.214082209402477-16.356261073193309-.044188768439199-2.784040801128867-.071347961276842-5.349979583252207-.33618119154562-8.107369596469653-.106743055222978-1.816897993538078-.49955024443625-3.602454362053322.002671977506907-5.317932286137875.786232172067685-2.643947091373775,5.087567139487874-3.980279084078575,6.692089653397488-1.330421838516486,6.781422857418875,10.016601487779553,13.619082672814329,22.454681128678203,23.472197133009104,29.245847904856419,1.059329720341339.69617276588906,1.365581161928276-.414925607532496,1.355731755367742-1.305112160884164.062952031645182-1.979490701136456.088515634304713-4.04200112388753.100931394517829-5.991769584814392-.19687797309598-4.494776031629954-.585179861551296-9.436514682267443-.642618845178731-13.755483822302267.102750865846247-2.776489284891795-.497459539126794-6.60912212733092.323532276875994-9.590654098339655,1.29965124453156-3.386165898931722,6.391873900525752-3.654927678568129,6.970402367238421.178804385188414.283369863771441,3.362730997607287,3.156552703174384,35.733294356718034,3.489147601187142,39.974706848754067.088269558076718,3.044597355326914-1.62746576669997,6.053592851923895-5.138783931075523,5.917438084663445l-.204171741763275.002609698731248Z" style="fill:none; stroke:#e7d1a1; stroke-width:1.079918128390146px;"/><path d="M283.762022285563944,49.669322901154374c.031133308364588,3.805146908121969-5.613196570602668,7.178594886498104-8.265646345325877,4.06158970541037-2.32826323790141-2.559689378123949-3.206454623294121-6.048237305911243-5.121079507805916-10.004101989254195-.409701273811152-.899928232374805-.565545985977224-1.518425803853461-1.209546580828828-2.036188323285387-.584613052576969-.362210142007825-1.325716916950114-.258788319317318-2.01238230508352-.081991797380397-5.765875694456554,1.490124019728682-11.620606349526497,3.337516483350555-17.530802780984232,5.557044921488341-1.838729017254082.56198867074454-2.68951344022571,2.298739139054305-4.204411435468501,3.392679143626083-2.315310851514369,1.836741188082669-6.183426986792256.175954547097717-5.897309017580483-2.924040076315578.280723977421076-2.309825392561834,2.360576081411637-5.329644868188552,3.38362305935334-7.754099651483557,2.47680456388116-4.777564752457693,4.517146219359347-9.807002640107385,6.427619469977799-15.072793482107954,1.763201494477471-4.692783294169203,5.447675710096519-14.360933028479849,6.197243306762175-16.440515945148945.2306170243628-1.215966811132603-.78137717950267-2.615879635162855-.257619438985785-3.89599559522685.991846360973796-2.598877688053108,5.05531708993658-3.024766099664703,6.939509662970522-1.181803957158991,2.844221172326797,2.789450409825804,3.258031410137846,6.706988837593599,4.935416573225666,10.132241019337016,4.095384317251956,9.873065359624889,8.087419054072598,18.551519952132367,11.96998541598623,26.0402529060284.919405682778233,1.758513619761288,1.864007365315047,3.590840829643639,2.813846660517811,5.423571317165624.929709347503376,1.966300070158468,1.702789864448278,2.716295534533856,1.830271797165551,4.614369566965252l.001281466104047.169782237340769ZM266.974095977282559,35.956978701293338c.180880114608954-.376510934080216-.047847660454863-.975272622583361-.226838443106317-1.40364337974097-2.234908884882316-5.361402254071436-4.421632705594675-10.703530989216233-6.550379978154524-15.983490841788807-.210905936968629-.487631505080572-.640227535644954-1.638943055851996-1.031220019176544-.728429073227744-1.861078220817944,5.057924224074668-4.189048113981698,11.428642470373234-7.492598083190387,20.077595271191967-.198971830581286.523337116679613-.512812791075703,1.363361200867075-.407465906308062,1.779197625499364.14515115112772.504390167476231.78116641217639.288645760245345,1.211679348021789.167277635988285,4.210443288142415-1.39840824743078,8.58750788296129-2.493185936409645,13.088997704444409-3.253209442318621.466315228009989-.077683247860477,1.110550439407234-.203235136317744,1.3466292106732-.549260627338299l.061196166796435-.106037168265175Z" style="fill:none; stroke:#e7d1a1; stroke-width:1.079918128390146px;"/><path d="M325.349458972088541,43.623008848910104c-.465116313953331,3.413982191126706-5.564228320597977,1.658989149749686-7.822445551364581,1.981542561154129-3.090145076022964.002467234806318-6.169324152384434.302299833712823-9.140288373760995.949066657531148-2.537772870178742.605223787322757-5.492685998180605,1.171806476711936-7.912835781096874,1.905831405092613-1.909372405274553.636221350918277-4.495737364872184,1.703306944331416-6.56880498762257,2.348819595858004-3.185627520413618,1.300522990764875-8.375909381782549.929342054458175-8.176025769931584-3.41922844686087-.040492403981261-4.372573925578763.107029193311973-8.898595970160386.29644445348822-13.060197853061254.451572738915274-7.962337893965014.519065667036557-16.28776247605856-.147429052565712-24.01993850722647-.101789851159992-1.994528210392673-.422018170092997-3.876327520254563.567366233806752-5.485124504939449.97639930601872-1.653250101995582,3.385563363270194-2.677596955187255,5.118403747730554-1.684940108514638,1.203779600527923.745112153175796,1.579993006462246,2.154156971537304,1.772580283628486,3.408806335908594.472078150096422,3.0172272082782.977084430514878,7.917392287745315,1.515873930486123,14.691965525818887.381963718162297,4.688306023102996,1.020425798047654,14.590507494043777,1.386842949112179,19.143382131675025.116801486517943.58577800067178.474323721035034.502663960578502,1.127677346858036.349120707687689,5.681168514460296-1.805382178104992,11.484711902236086-2.87234683974566,17.299577392588617-2.944133760915065,4.120315246171231-.1004571294161,10.842416662064352-.060575437046282,10.697703452773567,5.653660543934166l-.014640274130215.181367716857494Z" style="fill:none; stroke:#e7d1a1; stroke-width:1.079918128390146px;"/></g></svg>